<svg width="19" height="19" viewBox="0 0 19 19" fill="none" xmlns="http://www.w3.org/2000/svg">
<path d="M9.5 19C14.7465 19 19 14.7467 19 9.5C19 4.2533 14.7465 0 9.5 0C4.25347 0 0 4.2533 0 9.5C0 14.7467 4.25347 19 9.5 19Z" fill="#039BE5"/>
<path d="M4.34721 9.29417L13.5065 5.76253C13.9317 5.60893 14.3032 5.86623 14.1651 6.50906L14.166 6.50826L12.6067 13.8557C12.491 14.3767 12.1815 14.5033 11.7483 14.2579L9.37334 12.5075L8.22785 13.6111C8.10118 13.7378 7.99436 13.8447 7.74905 13.8447L7.91752 11.4277L12.3192 7.45117C12.5109 7.28253 12.2765 7.18753 12.024 7.35537L6.58414 10.7801L4.23954 10.0486C3.73034 9.88709 3.71936 9.53956 4.34721 9.29417Z" fill="white"/>
</svg>