<svg width="19" height="19" viewBox="0 0 19 19" fill="none" xmlns="http://www.w3.org/2000/svg">
<rect width="19" height="19" rx="9.5" fill="#4CAF50"/>
<path d="M5.10445 8.47283C5.25299 9.25096 5.69245 10.7476 6.97309 12.0283C8.25322 13.3089 9.74925 13.7489 10.5276 13.897C11.4183 14.0667 12.726 14.0923 13.3645 13.4532L13.7208 13.0969C13.9005 12.9171 14 12.6779 14 12.4235C14 12.1691 13.9005 11.93 13.7208 11.7502L12.2962 10.3253C12.1166 10.1454 11.8777 10.0464 11.623 10.0464C11.3688 10.0464 11.1299 10.1454 10.9497 10.3253L10.594 10.6815C10.3766 10.8991 9.96567 10.9 9.7467 10.6842L8.3257 9.20338C8.32366 9.20118 8.32162 9.19893 8.31906 9.19684C8.10163 8.97894 8.10163 8.62426 8.31906 8.4063L8.67533 8.05014C9.04743 7.67785 9.04743 7.07544 8.67533 6.70325L7.25076 5.27846C6.87969 4.90718 6.27586 4.90718 5.90428 5.27846L5.54851 5.63472V5.63462C5.03861 6.14481 4.86864 7.23229 5.10445 8.47283ZM6.18246 6.26913C6.55659 5.90373 6.53669 5.89673 6.57752 5.89673C6.59181 5.89673 6.6061 5.90209 6.61682 5.91287C8.11796 7.42226 8.05722 7.33358 8.05722 7.37682C8.05722 7.39189 8.05211 7.40511 8.04139 7.41583L7.68512 7.77204C7.11805 8.33937 7.1155 9.25775 7.68155 9.82763L9.10306 11.3094C9.10561 11.3115 9.10766 11.3137 9.1097 11.3159C9.67677 11.8832 10.6593 11.885 11.2279 11.3159L11.5842 10.9597C11.6056 10.9382 11.6409 10.9382 11.6623 10.9597C13.1634 12.4691 13.1027 12.3804 13.1027 12.4236C13.1027 12.4388 13.0976 12.4519 13.0869 12.4626L12.7306 12.8188C12.4866 13.0629 11.7093 13.209 10.6951 13.0158C10.0188 12.8868 8.7177 12.5047 7.60703 11.394C6.49687 10.2832 6.11457 8.98185 5.98595 8.30501C5.7925 7.2908 5.93848 6.51312 6.18246 6.26913Z" fill="white"/>
</svg>